<svg xmlns="http://www.w3.org/2000/svg" version="1.1" viewBox="0 0 55 55"><style>.st1{fill:#ff5543}.st2{fill:#a112ff}.st3{fill:#00cbec}</style><path d="M32.2,53.2c-2.8,0.5-5.5-1.3-6-4.1L18.5,7.6c-0.5-2.8,1.3-5.5,4.1-6s5.5,1.3,6,4.1l7.6,41.5 C36.8,50,35,52.7,32.2,53.2z" class="st1"/><path d="M12.4,46.2c-1.7,0.3-3.6-0.3-4.8-1.7c-1.8-2.2-1.6-5.4,0.6-7.2L40.2,10c2.2-1.8,5.4-1.6,7.2,0.6 s1.6,5.4-0.6,7.2L14.8,45C14.1,45.6,13.1,46,12.4,46.2z" class="st2"/><path d="M48.2,39.5c-0.9,0.2-1.8,0.1-2.6-0.2L5.8,25.2c-2.7-1-4.1-3.9-3.1-6.6s3.9-4.1,6.6-3.1L49,29.7 c2.7,1,4.1,3.9,3.1,6.6C51.5,38,50,39.2,48.2,39.5z" class="st3"/></svg>