<svg xmlns="http://www.w3.org/2000/svg" version="1.1" viewBox="0 0 960 540" xml:space="preserve"><desc>Infographic describing cadence of Impact review cycle from start date to cycle launches</desc><style type="text/css">@import url(https://fonts.googleapis.com/css2?family=Source+Sans+Pro:wght@400;700&amp;display=swap);svg{font-family:&quot;Source Sans Pro&quot;,sans-serif;stroke-width:2}.title{font-size:55px}.bold{font-weight:700}.fill-vermillion{fill:#ff5543}.fill-vivid-violet{fill:#a112ff}.fill-sky-blue{fill:#00cbec}.fill-gray{fill:#efefef}.fill-white{fill:#fff}.stroke-vermillion{stroke:#ff5543}.stroke-vivid-violet{stroke:#a112ff}.stroke-sky-blue{stroke:#00cbec}.stroke-gray{stroke:#666}.st11{font-size:17px}.st13{font-size:48px}.st15{font-size:14px}.st16{font-size:36px}.st22{font-size:18px}</style><g id="Logo" aria-label="Sourcegraph logo"><path d="M24.4 35.5c-1.3.2-2.5-.6-2.7-1.8L18.3 15c-.2-1.3.6-2.5 1.8-2.7 1.3-.2 2.5.6 2.7 1.8l3.4 18.7c.3 1.2-.6 2.4-1.8 2.7z" class="fill-vermillion"/><path d="M15.4 32.3c-.8.1-1.6-.1-2.2-.8-.8-1-.7-2.4.3-3.2L28 16c1-.8 2.4-.7 3.2.3.8 1 .7 2.4-.3 3.2L16.5 31.8l-1.1.5z" class="fill-vivid-violet"/><path d="M31.6 29.3c-.4.1-.8 0-1.2-.1l-17.9-6.4a2.4 2.4 0 0 1-1.4-3 2.4 2.4 0 0 1 3-1.4L32 24.8c1.2.5 1.8 1.8 1.4 3-.3.8-1 1.4-1.8 1.5z" class="fill-sky-blue"/><path d="M46.6 27c0-.5-.2-.8-.5-1.1l-1.2-.8-1.6-.7c-.6-.2-1.1-.5-1.6-.9s-.9-.8-1.2-1.4a4 4 0 0 1-.5-2c0-.7.1-1.4.4-1.8.2-.5.6-.9 1-1.3a6.4 6.4 0 0 1 3.6-1.1l2.4.2c.7.1 1.4.4 1.8.6l-.9 2.4c-.3-.2-.8-.4-1.4-.5-.6-.2-1.3-.2-2-.2s-1.2.1-1.5.4c-.4.3-.5.6-.5 1.1 0 .4.2.8.5 1l1.2.8 1.6.7c.6.3 1.1.5 1.6.9s.9.8 1.2 1.3c.3.5.5 1.2.5 1.9a4.2 4.2 0 0 1-1.5 3.4c-.5.4-1 .7-1.7.9a10.6 10.6 0 0 1-6.7-.6l.9-2.4.6.3.8.3 1 .2 1 .1c.9 0 1.5-.1 1.9-.5.5-.2.8-.6.8-1.2zM50.7 25.7a6 6 0 0 1 1.3-4.1c.9-.9 2.1-1.4 3.6-1.4.9 0 1.6.1 2.2.4.6.3 1.1.6 1.5 1.1.4.5.7 1.1.9 1.8.2.7.3 1.4.3 2.3a6 6 0 0 1-1.3 4.1c-.9.9-2.1 1.4-3.6 1.4-.9 0-1.6-.1-2.2-.4-.6-.3-1.1-.6-1.5-1.1A5 5 0 0 1 51 28a8 8 0 0 1-.3-2.3zm2.8 0 .1 1.3.4 1 .7.7c.3.2.6.2 1 .2.7 0 1.3-.3 1.6-.8.4-.5.5-1.4.5-2.4 0-.9-.2-1.8-.5-2.3-.3-.6-.9-.9-1.6-.9a2 2 0 0 0-1.6.8c-.5.5-.6 1.3-.6 2.4zM64.6 20.5v5.9c0 .9.1 1.5.3 1.8.2.4.6.6 1.2.6.5 0 .9-.1 1.3-.5l.8-1.1v-6.8h2.7v7.3l.1 1.7.3 1.5h-2.1l-.5-1.5h-.1c-.3.5-.8 1-1.4 1.3-.6.4-1.3.5-2 .5l-1.4-.2c-.4-.1-.8-.4-1-.7-.3-.3-.5-.8-.6-1.3l-.2-2.1v-6.5h2.6zM78.8 23l-1.2-.2c-.5 0-.9.1-1.2.4l-.7 1V31H73V20.5h2.1l.3 1.4h.1c.2-.5.5-.9.9-1.2.4-.3.9-.4 1.4-.4.4 0 1.1.2 1.5.4l-.5 2.3zM87.6 30.3c-.4.3-.9.5-1.5.7-.6.2-1.2.2-1.8.2-.9 0-1.5-.1-2.1-.4-.6-.3-1-.6-1.4-1.1a5 5 0 0 1-.8-1.8c-.2-.7-.2-1.4-.2-2.3 0-1.8.4-3.2 1.2-4.1.8-.9 1.9-1.4 3.5-1.4.8 0 1.4 0 1.8.2l1.3.5L87 23l-.9-.4-1.1-.1a2 2 0 0 0-1.7.8c-.4.5-.6 1.3-.6 2.4l.1 1.2c.1.4.2.7.5 1l.8.7c.3.2.7.2 1.1.2.5 0 .9 0 1.2-.2l.9-.5.3 2.2zM97.2 30.1l-1.7.9c-.7.2-1.5.4-2.3.4-1.7 0-2.9-.5-3.7-1.5-.8-1-1.2-2.3-1.2-4.1a6 6 0 0 1 1.3-4.1 5 5 0 0 1 3.7-1.4l1.5.2c.5.1.9.4 1.4.7.4.3.7.8.9 1.3.2.5.4 1.2.4 2v.9l-.1 1H91c0 .9.3 1.5.7 2 .4.5 1.1.7 2 .7.6 0 1.1-.1 1.5-.3l1-.5 1 1.8zm-3.9-7.7c-.7 0-1.3.2-1.6.6-.4.4-.5 1-.6 1.7H95c0-.8 0-1.4-.4-1.8-.2-.3-.7-.5-1.3-.5zM108.1 31c0 1.5-.4 2.7-1.2 3.4s-2 1.1-3.5 1.1l-2.4-.2c-.6-.1-1-.3-1.3-.5l.6-2.2 1.1.4 1.6.2c.9 0 1.6-.2 1.9-.6s.5-1 .5-1.7v-.6h-.1c-.5.7-1.4 1-2.6 1-1.4 0-2.3-.4-3-1.3-.7-.9-1-2.2-1-3.9 0-1.9.5-3.3 1.4-4.2s2.2-1.4 3.9-1.4a9 9 0 0 1 2.4.2c.7.1 1.3.3 1.7.5V31zm-4.6-2.1c.5 0 .9-.1 1.2-.4l.7-1.1v-4.7c-.5-.2-1-.3-1.6-.3-.7 0-1.3.3-1.6.8-.4.5-.6 1.4-.6 2.5 0 1 .2 1.8.5 2.3.3.7.8.9 1.4.9zM116 23l-1.2-.2c-.5 0-.9.1-1.2.4l-.7 1V31h-2.7V20.5h2.1l.3 1.4h.1c.2-.5.5-.9.9-1.2s.9-.4 1.4-.4l1.2.2-.2 2.5zM117.3 21c.5-.3.9-.4 1.7-.5l2.4-.2c.7 0 1.4.1 1.8.3s.9.4 1.2.8c.3.3.5.7.6 1.2l.2 1.5v1.8l-.1 1.8v1.8c0 .6.1 1.1.3 1.6h-2.2l-.5-1.4c-.3.5-.7.8-1.2 1.1-.5.3-1.1.5-1.9.5l-1.3-.2c-.4-.1-.7-.4-1-.6l-.6-.9-.2-1.3c0-.6.1-1.2.5-1.6s.7-.8 1.2-1.1c.5-.3 1.2-.5 1.9-.6l2.5-.1c.1-.8 0-1.4-.2-1.7-.2-.4-.7-.5-1.4-.5-.5 0-1.1 0-1.7.2l-1.2.4-.8-2.3zm3.2 7.9c.5 0 1-.1 1.3-.4l.7-.8v-1.4h-1.3l-1 .2-.7.4a1 1 0 0 0-.3.7c0 .4.1.7.4.9.2.3.5.4.9.4zM127.2 20.5h2l.3 1.3h.1c.4-.5.8-.9 1.3-1.2.5-.3 1.1-.4 1.8-.4 1.3 0 2.3.4 3 1.3.7.9 1 2.2 1 4 0 .9-.1 1.7-.3 2.4s-.5 1.4-.9 1.8c-.4.5-.9.9-1.5 1.2s-1.3.4-2 .4l-1.1-.1-.9-.3v4.3h-2.7l-.1-14.7zm4.7 2a2 2 0 0 0-1.3.4c-.3.3-.5.7-.7 1.2v4.4l.6.4.9.1c.8 0 1.4-.3 1.8-.8.4-.5.6-1.4.6-2.7 0-.9-.1-1.6-.5-2.1-.2-.6-.7-.9-1.4-.9zM144.6 31v-6c0-.9-.1-1.5-.4-1.8-.2-.4-.7-.6-1.3-.6-.5 0-.9.1-1.3.5-.4.3-.6.7-.8 1.2V31h-2.7V16.3h2.7v5.4h.1c.3-.5.8-.8 1.2-1.1.5-.3 1.1-.4 1.8-.4l1.4.2c.4.1.8.4 1 .7.3.3.5.8.6 1.3l.2 2V31h-2.5z"/></g><text id="Title" aria-level="1" class="title" role="heading" transform="translate(243 103.9)">Impact review cycles</text><path id="Horizontal_line" d="m97.5 275.5 799.5 1.9" class="stroke-gray"/><g id="Start_date" aria-label="Rectangle at the start of horizontal line" role="group"><rect width="88.2" height="60.1" x="57.7" y="246.4" class="fill-sky-blue stroke-gray"/><text transform="translate(82.7 272.2)"><tspan x="0" y="0" class="fill-white bold st11">Start</tspan> <tspan x="2.1" y="20.4" class="fill-white bold st11">date</tspan></text><text style="white-space:pre" x="102" y="225" class="st13" font-size="48" text-anchor="middle">🎉</text></g><g id="Month1" aria-label="Rectangle on horizontal line" role="group"><rect width="62.1" height="48.3" x="211.2" y="252.9" class="fill-vivid-violet stroke-gray"/><text transform="translate(222.3 273.6)"><tspan x="0" y="0" class="fill-white bold st15">Month</tspan> <tspan x="16.2" y="16.8" class="fill-white bold st15">1</tspan></text><text style="white-space:pre" x="240" y="227" class="st16" font-size="36" text-anchor="middle">🧗</text></g><path id="Line_down" d="m242.2 301.2.1 80.9" class="stroke-vivid-violet"/><g id="Month2" aria-label="Rectangle on horizontal line" role="group"><rect width="62.1" height="48.3" x="321.6" y="252.9" class="fill-vermillion stroke-gray"/><text transform="translate(332.9 273.2)"><tspan x="0" y="0" class="fill-white bold st15">Month</tspan> <tspan x="16.2" y="16.8" class="fill-white bold st15">2</tspan></text><text style="white-space:pre" x="353" y="228" class="st16" font-size="36" text-anchor="middle">🧗</text></g><line id="Line_down_1_" x1="352.7" x2="352.7" y1="301.2" y2="433.6" aria-label="Line down" class="stroke-vermillion"/><g id="Month3" aria-label="Rectangle on horizontal line" role="group"><rect width="62.1" height="48.3" x="432.1" y="252.3" class="fill-sky-blue stroke-gray"/><text transform="translate(443.9 272.9)"><tspan x="0" y="0" class="fill-white bold st15">Month</tspan> <tspan x="16.2" y="16.8" class="fill-white bold st15">3</tspan></text><text style="white-space:pre" x="464" y="228" class="st16" font-size="36" text-anchor="middle">🧗</text></g><path id="Line_down_2_" d="m463.2 300.6-.2 81.6" aria-label="Line down" class="stroke-sky-blue"/><g id="Onboarding_feedback_milestones" aria-label="Rectangle spanning three months" role="group"><rect width="220.7" height="60" x="242.3" y="382.1" class="fill-gray stroke-gray"/><text transform="translate(275.7 408)"><tspan x="0" y="0" class="st11">Onboarding feedback</tspan> <tspan x="38" y="20.4" class="st11">milestones</tspan></text></g><g id="Month6" aria-label="Rectangle on horizontal line" role="group"><rect width="88.2" height="60.1" x="565.3" y="247" class="fill-vivid-violet stroke-gray"/><text class="fill-white bold st22" transform="translate(577.3 283.4)">Month 6</text><text style="white-space:pre" x="859" y="231" class="st13" font-size="48" text-anchor="middle">✍️</text><path id="Line_down_to_impact_review_1" d="M609.3 307.6v75.7" aria-label="Line down" class="stroke-vivid-violet"/><g id="Impact_review_1" aria-label="Rectangle" role="group"><rect width="88.2" height="60.1" x="565.3" y="382.1" class="fill-gray stroke-gray"/><text transform="translate(584.4 408)"><tspan x="0" y="0" class="st11">Impact</tspan> <tspan x="-8.7" y="20.4" class="st11">review #1</tspan></text></g></g><g id="Repeat" aria-label="Arrows pointing in a circle" role="group"><path id="Arrow_right" d="M803.3 254.5v-19.1c0-10.5-8.5-19.1-19.1-19.1h-109v-5.4l-10.9 10.9 10.9 10.9v-5.4h109c4.5 0 8.2 3.7 8.2 8.2v19.1h10.9z" class="fill-sky-blue"/><path id="Arrow_left" d="M664.4 298.4v19.1c0 10.5 8.5 19.1 19.1 19.1h109v5.4l10.9-10.9-10.9-10.9v5.4h-109a8.2 8.2 0 0 1-8.2-8.2v-19.1h-10.9z" class="fill-sky-blue"/><text class="st11" transform="translate(708.6 204.2)">Repeat</text></g><g id="Month12" aria-label="Rectangle on horizontal line" role="group"><rect width="88.2" height="60.1" x="814.1" y="247" class="fill-vermillion stroke-gray"/><text transform="translate(832.9 273)"><tspan x="0" y="0" class="fill-white bold st22">Month</tspan> <tspan x="16.1" y="21.6" class="fill-white bold st22">12</tspan></text><text style="white-space:pre" x="609" y="231" class="st13" font-size="48" text-anchor="middle">✍️</text><path id="Line_down_to_impact_review_2" d="M858.2 307.7v75.7" aria-label="Line down" class="stroke-vermillion"/><g id="Impact_review_2" aria-label="Rectangle" role="group"><rect width="88.2" height="60.1" x="814.1" y="382.1" class="fill-gray stroke-gray"/><text transform="translate(833.2 408)"><tspan x="0" y="0" class="st11">Impact</tspan> <tspan x="-8.7" y="20.4" class="st11">review #2</tspan></text></g></g></svg>